{
    "asset" : {
        "generator" : "Khronos glTF Blender I/O v1.6.16",
        "version" : "2.0"
    },
    "scene" : 0,
    "scenes" : [
        {
            "name" : "Scene",
            "nodes" : [
                0,
                1,
                2,
                3,
                4
            ]
        }
    ],
    "nodes" : [
        {
            "name" : "Light",
            "rotation" : [
                0.16907575726509094,
                0.7558803558349609,
                -0.27217137813568115,
                0.570947527885437
            ],
            "scale" : [
                0.9784671664237976,
                0.9784670472145081,
                0.9784672856330872
            ],
            "translation" : [
                0.44715890288352966,
                0.14995987713336945,
                -0.4452268183231354
            ]
        },
        {
            "name" : "Camera",
            "rotation" : [
                0.3319694697856903,
                0.6674219369888306,
                -0.45357897877693176,
                0.48847758769989014
            ],
            "translation" : [
                0.25390905141830444,
                0.10628792643547058,
                -0.07945501059293747
            ]
        },
        {
            "mesh" : 0,
            "name" : "donut"
        },
        {
            "mesh" : 1,
            "name" : "icing"
        },
        {
            "mesh" : 2,
            "name" : "Plane",
            "translation" : [
                0,
                -0.020435767248272896,
                0
            ]
        }
    ],
    "materials" : [
        {
            "doubleSided" : true,
            "name" : "Material.002",
            "pbrMetallicRoughness" : {
                "baseColorFactor" : [
                    0.8000000715255737,
                    0.37073570489883423,
                    0.2039446085691452,
                    1
                ],
                "metallicFactor" : 0,
                "roughnessFactor" : 0.5
            }
        },
        {
            "doubleSided" : true,
            "name" : "Material.001",
            "pbrMetallicRoughness" : {
                "baseColorFactor" : [
                    0.7604210376739502,
                    0.2685796022415161,
                    0.8000000715255737,
                    1
                ],
                "metallicFactor" : 0,
                "roughnessFactor" : 0.1818181723356247
            }
        }
    ],
    "meshes" : [
        {
            "name" : "Torus",
            "primitives" : [
                {
                    "attributes" : {
                        "POSITION" : 0,
                        "NORMAL" : 1,
                        "TEXCOORD_0" : 2
                    },
                    "indices" : 3,
                    "material" : 0
                }
            ]
        },
        {
            "name" : "Torus.001",
            "primitives" : [
                {
                    "attributes" : {
                        "POSITION" : 4,
                        "NORMAL" : 5,
                        "TEXCOORD_0" : 6
                    },
                    "indices" : 7,
                    "material" : 1
                }
            ]
        },
        {
            "name" : "Plane",
            "primitives" : [
                {
                    "attributes" : {
                        "POSITION" : 8,
                        "NORMAL" : 9,
                        "TEXCOORD_0" : 10
                    },
                    "indices" : 11
                }
            ]
        }
    ],
    "accessors" : [
        {
            "bufferView" : 0,
            "componentType" : 5126,
            "count" : 2831,
            "max" : [
                0.04751534014940262,
                0.02022819221019745,
                0.048310600221157074
            ],
            "min" : [
                -0.04785795137286186,
                -0.020396815612912178,
                -0.04823503643274307
            ],
            "type" : "VEC3"
        },
        {
            "bufferView" : 1,
            "componentType" : 5126,
            "count" : 2831,
            "type" : "VEC3"
        },
        {
            "bufferView" : 2,
            "componentType" : 5126,
            "count" : 2831,
            "type" : "VEC2"
        },
        {
            "bufferView" : 3,
            "componentType" : 5123,
            "count" : 15360,
            "type" : "SCALAR"
        },
        {
            "bufferView" : 4,
            "componentType" : 5126,
            "count" : 11906,
            "max" : [
                0.04944372922182083,
                0.022516008466482162,
                0.050764262676239014
            ],
            "min" : [
                -0.05030292645096779,
                -0.009739273227751255,
                -0.050741396844387054
            ],
            "type" : "VEC3"
        },
        {
            "bufferView" : 5,
            "componentType" : 5126,
            "count" : 11906,
            "type" : "VEC3"
        },
        {
            "bufferView" : 6,
            "componentType" : 5126,
            "count" : 11906,
            "type" : "VEC2"
        },
        {
            "bufferView" : 7,
            "componentType" : 5123,
            "count" : 66672,
            "type" : "SCALAR"
        },
        {
            "bufferView" : 8,
            "componentType" : 5126,
            "count" : 4,
            "max" : [
                1,
                0,
                1
            ],
            "min" : [
                -1,
                0,
                -1
            ],
            "type" : "VEC3"
        },
        {
            "bufferView" : 9,
            "componentType" : 5126,
            "count" : 4,
            "type" : "VEC3"
        },
        {
            "bufferView" : 10,
            "componentType" : 5126,
            "count" : 4,
            "type" : "VEC2"
        },
        {
            "bufferView" : 11,
            "componentType" : 5123,
            "count" : 6,
            "type" : "SCALAR"
        }
    ],
    "bufferViews" : [
        {
            "buffer" : 0,
            "byteLength" : 33972,
            "byteOffset" : 0
        },
        {
            "buffer" : 0,
            "byteLength" : 33972,
            "byteOffset" : 33972
        },
        {
            "buffer" : 0,
            "byteLength" : 22648,
            "byteOffset" : 67944
        },
        {
            "buffer" : 0,
            "byteLength" : 30720,
            "byteOffset" : 90592
        },
        {
            "buffer" : 0,
            "byteLength" : 142872,
            "byteOffset" : 121312
        },
        {
            "buffer" : 0,
            "byteLength" : 142872,
            "byteOffset" : 264184
        },
        {
            "buffer" : 0,
            "byteLength" : 95248,
            "byteOffset" : 407056
        },
        {
            "buffer" : 0,
            "byteLength" : 133344,
            "byteOffset" : 502304
        },
        {
            "buffer" : 0,
            "byteLength" : 48,
            "byteOffset" : 635648
        },
        {
            "buffer" : 0,
            "byteLength" : 48,
            "byteOffset" : 635696
        },
        {
            "buffer" : 0,
            "byteLength" : 32,
            "byteOffset" : 635744
        },
        {
            "buffer" : 0,
            "byteLength" : 12,
            "byteOffset" : 635776
        }
    ],
    "buffers" : [
        {
            "byteLength" : 635788,
            "uri" : "data:application/octet-stream;base64,"
        }
    ]
}
